# xmcd CD database file
#
# Track frame offsets:
#	150
#	10586
#	31854
#	44838
#	68597
#	83308
#	100577
#	118811
#	139952
#	160977
#	183311
#	199364
#	215142
#	227443
#	246613
#	273684
#
# Disc length: 4374 seconds
#
# Revision: 0
# Processed by: cddbd v1.5.2PL0 Copyright (c) Steve Scherf et al.
# Submitted via: CDex 1.51
#
DISCID=e3111410
DTITLE=e la luna? - tre!
DYEAR=2006
DGENRE=Jazz
TTITLE0=La Notte E Fatta Per Rubare
TTITLE1=Sotto Il Sole Con Il Mare
TTITLE2=Bartali
TTITLE3=Quello Che Vuoi
TTITLE4=Meglio Stasera
TTITLE5=Ca Voli! (Vienimi Accanto)
TTITLE6=Storia D'amore
TTITLE7=Felino
TTITLE8=La Canzone Del Sole
TTITLE9=Giornali Femminili
TTITLE10=Non Arrossire
TTITLE11=Sparring Partner
TTITLE12=L'amore Tutto Qui
TTITLE13=Insieme A Te Non Ci Sto Più
TTITLE14=Tintarella Di Luna 
TTITLE15=Datatrack 16 
EXTD=YEAR: 2006
EXTT0=
EXTT1=
EXTT2=
EXTT3=
EXTT4=
EXTT5=
EXTT6=
EXTT7=
EXTT8=
EXTT9=
EXTT10=
EXTT11=
EXTT12=
EXTT13=
EXTT14=
EXTT15=
PLAYORDER=
